<svg width="49" height="48" viewBox="0 0 49 48" fill="none" xmlns="http://www.w3.org/2000/svg">
<g id="carbon:logo-linkedin">
<path id="Vector" d="M39.9667 6H9.36666C7.86666 6 6.66666 7.2 6.66666 8.55V39.3C6.66666 40.65 7.86666 41.85 9.36666 41.85H39.9667C41.4667 41.85 42.6667 40.65 42.6667 39.3V8.55C42.6667 7.2 41.4667 6 39.9667 6ZM17.3167 36.6H12.0667V19.5H17.3167V36.6ZM14.7667 17.1C13.1167 17.1 11.6167 15.75 11.6167 13.95C11.6167 12.15 12.9667 10.8 14.7667 10.8C16.4167 10.8 17.9167 12.15 17.9167 13.95C17.9167 15.75 16.4167 17.1 14.7667 17.1ZM37.4167 36.45H32.1667V28.05C32.1667 26.1 32.1667 23.4 29.3167 23.4C26.4667 23.4 26.1667 25.65 26.1667 27.75V36.3H20.9167V19.5H25.8667V21.75H26.0167C26.7667 20.4 28.5667 18.9 31.1167 18.9C36.5167 18.9 37.5667 22.5 37.5667 27.15V36.45H37.4167Z" fill="white"/>
</g>
</svg>
