<svg width="28" height="30" viewBox="0 0 28 30" fill="none" xmlns="http://www.w3.org/2000/svg">
<g id="Eye icon" opacity="0.5">
<path id="Vector" fill-rule="evenodd" clip-rule="evenodd" d="M16.6869 8.69769L17.4948 7.6323C17.8058 7.22211 18.3475 7.1735 18.7225 7.5C19.0866 7.81695 19.156 8.41509 18.853 8.81466L8.57527 22.3677C8.26421 22.7779 7.72259 22.8265 7.34753 22.5C6.98344 22.183 6.91406 21.5849 7.21707 21.1853L7.93991 20.2321C4.36827 18.654 2.17664 16.2344 2.17664 16.2344C1.45758 15.5526 1.43775 14.4405 2.17664 13.7656C2.17664 13.7656 7.00271 8.4375 14.0027 8.4375C14.9385 8.4375 15.8353 8.53271 16.6869 8.69769ZM19.9666 9.72503C23.5945 11.3018 25.8238 13.7656 25.8238 13.7656C26.5423 14.4474 26.5621 15.5595 25.8238 16.2344C25.8238 16.2344 21.0027 21.5625 14.0027 21.5625C13.0056 21.5625 12.0525 21.4544 11.1512 21.2689L12.5578 19.427C13.0093 19.5958 13.4945 19.6875 13.9997 19.6875C16.4159 19.6875 18.3747 17.5888 18.3747 15C18.3747 14.1269 18.1519 13.3095 17.7638 12.6096L19.9666 9.72503ZM13.797 17.8042L16.5254 14.2313C16.5901 14.4756 16.6247 14.7335 16.6247 15C16.6247 16.5533 15.4494 17.8125 13.9997 17.8125C13.9315 17.8125 13.8639 17.8097 13.797 17.8042Z" fill="#333333"/>
</g>
</svg>
