<svg width="45" height="45" viewBox="0 0 45 45" fill="none" xmlns="http://www.w3.org/2000/svg">
<g id="icons8-github 1">
<path id="Vector" d="M20.612 0.129779C11.987 1.06728 5.04946 8.00478 4.11196 16.4423C3.17446 25.2548 8.23696 33.1298 15.9245 36.1298C16.487 36.3173 17.0495 35.9423 17.0495 35.1923V32.1923C17.0495 32.1923 16.2995 32.3798 15.362 32.3798C12.737 32.3798 11.612 30.1298 11.4245 28.8173C11.237 28.0673 10.862 27.5048 10.2995 26.9423C9.73696 26.7548 9.54946 26.7548 9.54946 26.5673C9.54946 26.1923 10.112 26.1923 10.2995 26.1923C11.4245 26.1923 12.362 27.5048 12.737 28.0673C13.6745 29.5673 14.7995 29.9423 15.362 29.9423C16.112 29.9423 16.6745 29.7548 17.0495 29.5673C17.237 28.2548 17.7995 26.9423 18.9245 26.1923C14.612 25.2548 11.4245 22.8173 11.4245 18.6923C11.4245 16.6298 12.362 14.5673 13.6745 13.0673C13.487 12.6923 13.2995 11.7548 13.2995 10.4423C13.2995 9.69228 13.2995 8.56728 13.862 7.44228C13.862 7.44228 16.487 7.44228 19.112 9.87978C20.0495 9.50478 21.362 9.31728 22.6745 9.31728C23.987 9.31728 25.2995 9.50478 26.4245 9.87978C28.862 7.44228 31.6745 7.44228 31.6745 7.44228C32.0495 8.56728 32.0495 9.69228 32.0495 10.4423C32.0495 11.9423 31.862 12.6923 31.6745 13.0673C32.987 14.5673 33.9245 16.4423 33.9245 18.6923C33.9245 22.8173 30.737 25.2548 26.4245 26.1923C27.5495 27.1298 28.2995 28.8173 28.2995 30.5048V35.3798C28.2995 35.9423 28.862 36.5048 29.612 36.3173C36.5495 33.5048 41.4245 26.7548 41.4245 18.8798C41.4245 7.62978 31.862 -1.18272 20.612 0.129779Z" fill="black"/>
</g>
</svg>
