<svg width="44" height="44" viewBox="0 0 44 44" fill="none" xmlns="http://www.w3.org/2000/svg">
<g id="icons8-google 1">
<path id="Vector" d="M39.9782 18.4094H38.5014V18.3333H22.0014V25.6667H32.3625C30.8509 29.9356 26.7892 33 22.0014 33C15.9267 33 11.0014 28.0748 11.0014 22C11.0014 15.9253 15.9267 11 22.0014 11C24.8055 11 27.3566 12.0578 29.299 13.7858L34.4846 8.60017C31.2102 5.54859 26.8304 3.66667 22.0014 3.66667C11.8768 3.66667 3.66807 11.8754 3.66807 22C3.66807 32.1246 11.8768 40.3333 22.0014 40.3333C32.126 40.3333 40.3347 32.1246 40.3347 22C40.3347 20.7708 40.2082 19.5708 39.9782 18.4094Z" fill="#FFC107"/>
<path id="Vector_2" d="M5.7819 13.4668L11.8053 17.8842C13.4352 13.849 17.3823 11 22.0014 11C24.8055 11 27.3566 12.0578 29.299 13.7858L34.4846 8.60017C31.2102 5.54859 26.8304 3.66667 22.0014 3.66667C14.9596 3.66667 8.85274 7.64225 5.7819 13.4668Z" fill="#FF3D00"/>
<path id="Vector_3" d="M22.0014 40.3333C26.7369 40.3333 31.0397 38.5211 34.293 35.574L28.6188 30.7725C26.7782 32.1667 24.4902 33 22.0014 33C17.2329 33 13.184 29.9594 11.6587 25.7162L5.68015 30.3224C8.71432 36.2597 14.8762 40.3333 22.0014 40.3333Z" fill="#4CAF50"/>
<path id="Vector_4" d="M39.9782 18.4094H38.5014V18.3333H22.0014V25.6667H32.3625C31.6365 27.7173 30.3174 29.4855 28.6161 30.7734C28.617 30.7725 28.6179 30.7725 28.6188 30.7716L34.293 35.5731C33.8915 35.9379 40.3347 31.1667 40.3347 22C40.3347 20.7708 40.2082 19.5708 39.9782 18.4094Z" fill="#1976D2"/>
</g>
</svg>
